Genre:Biography | Comedy | Crime
Language:English
  http://www.imdb.com/title/tt1194417/
Source:BluRay.x264-iMSORNY
Subtitles:Romana


Format : Matroska
File size : 1.91 GiB
Duration : 1h 48mn
Overall bit rate : 2 533 Kbps


Video
Format settings, CABAC : Yes
Format settings, ReFrames : 4 frames
Format settings, GOP : M=1, N=3
Codec ID : V_MPEG4/ISO/AVC
Duration : 1h 48mn
Bit rate : 2 200 Kbps
Width : 1 280 pixels
Height : 720 pixels
Display aspect ratio : 16:9
Frame rate mode : Variable
Frame rate : 23.976 fps
Color space : YUV
Chroma subsampling : 4:2:0
Bit depth : 8 bits
Scan type : Progressive
Bits/(Pixel*Frame) : 0.100
Stream size : 1.58 GiB (83%)
Writing library : x264

Audio
ID : 2
Format : AC-3
Format/Info : Audio Coding 3
Mode extension : CM (complete main)
Codec ID : A_AC3
Duration : 1h 48mn
Bit rate mode : Constant
Bit rate : 384 Kbps
Channel(s) : 6 channels
Channel positions : Front: L C R, Side: L R, LFE
Sampling rate : 48.0 KHz
Bit depth : 16 bits
Video delay : -1mn 5s
Stream size : 297 MiB (15%)
Language : English


Plot:
A hot shot Washington DC lobbyist and his protTgT go down hard as their schemes to peddle influence lead to corruption and murder.

